<svg xmlns="http://www.w3.org/2000/svg" viewBox="0 0 24 24" class="w-32 h-32 text-pink-500">
  <path d="M17.65,2.78l-7.77,3.89a.51.51,0,0,0-.27.44V11.7a2.13,2.13,0,0,0,2.12,2.12H15a2.13,2.13,0,0,0,2.12-2.12V7.56l3.58-1.79A.5.5,0,0,0,22,5.92V4.51A1.75,1.75,0,0,0,20.3,2.83,1.78,1.78,0,0,0,17.65,2.78ZM14.48,14.41a.51.51,0,0,1-.51.51H6.66a.51.51,0,0,1-.51-.51V9.82l4.38,2.19a.51.51,0,0,0,.37,0l3.71-1.86a.5.5,0,0,0,.26-.44V6.45L13.1,5.1a.5.5,0,0,0-.37,0L5.72,8.75V5.1A.51.51,0,0,1,6.22,4.6H14a.51.51,0,0,1,.51.51Z"/>
  <path d="M9.32,11.23a1,1,0,1,0-1-1A1,1,0,0,0,9.32,11.23Z"/>
  <path d="M13.64,11.23a1,1,0,1,0-1-1A1,1,0,0,0,13.64,11.23Z"/>
  <path d="M11.48,10.27a1,1,0,0,0-.69,1.81,1,1,0,1,0,.69-1.81Z"/>
</svg>